<?xml version="1.0" encoding="utf-8"?>
<!-- Generator: Adobe Illustrator 19.1.0, SVG Export Plug-In . SVG Version: 6.00 Build 0)  -->
<svg version="1.1" id="Layer_1" xmlns="http://www.w3.org/2000/svg" xmlns:xlink="http://www.w3.org/1999/xlink" x="0px" y="0px"
	 viewBox="0 0 273 52.5" style="enable-background:new 0 0 273 52.5;" xml:space="preserve">
<style type="text/css">
	.st0{fill:#009877;}
	.st1{fill:#76CDB8;}
</style>
<path class="st0" d="M31.5,31.5h-18v-18h18V31.5z M13.5,13.5H0V45h31.5V31.5L45,45V0H0L13.5,13.5z"/>
<polygon class="st1" points="13.5,31.6 13.5,13.6 0,13.6 0,45.1 31.5,45.1 31.5,31.6 "/>
<path d="M260.8,45.2h0.9l1.1-1.2c1,0.6,3,1.2,4.4,1.2c3.8,0,5.8-2.6,5.8-5.8c0-2.6-1.5-3.9-5.1-4.9c-3-0.9-4.3-1.7-4.3-3.2
	c0-1.7,1.2-2.8,3-2.8c1.8,0,3.3,1.6,4.5,4h1.1v-5.1h-0.9l-0.7,1c-0.8-0.5-2.4-1-3.6-1c-3.7,0-6.1,2.2-6.1,5.5c0,2.4,1.4,3.7,5.2,4.8
	c3.4,1.1,4.5,1.8,4.5,3.5c0,1.5-1.1,2.9-3.1,2.9c-2.2,0-4-1.8-5.6-4.6h-1.1V45.2z M253.3,45.2c2.4,0,3.7-1,5.1-3.5l-0.9-0.6
	c-0.9,1.2-1.7,2-2.7,2c-1.6,0-2.3-1-2.3-3.1V29.3h5.5v-1.6h-5.5v-6.2l-3.1,1.4v4.8l-3.3,0.7v1.1h3.2v11.1
	C249.3,43.7,250.8,45.2,253.3,45.2 M231.3,44.9h9.1v-1.2c-2.5,0-3.2-0.4-3.2-1.3V31.8c0.8-1.1,2.1-2.3,3.8-2.2
	c0,0.2-0.1,0.5-0.1,0.6c0,1.3,0.9,2,2.1,2c1.2,0,2-0.9,2-2.1c0-1.3-0.9-2.6-2.8-2.6c-2,0-3.7,1.4-5,3.1v-2.9l-5.8,0.2v1.2
	c2.2,0,2.7,0.7,2.7,1.8v11.7c0,0.9-0.6,1.3-2.7,1.3V44.9z M212.9,34.3l3.8-10h0.2l3.4,10H212.9z M222.6,40.9c0.7,2,0.1,2.7-3.2,2.9
	v1.1h11.1v-1.1c-2.8-0.4-3.5-1.2-4.2-3.1l-7.6-21H217l-7.6,18.8c-1.3,3.2-2.1,4.7-4.7,5.2v1.1h8.2v-1.1c-3.3-0.5-3.5-1-2.1-4.5
	l1.4-3.7h8.4L222.6,40.9z M193.2,44.8l-0.2,0.5c-1.8,4.3-2.9,5.6-4.2,5.6c0.2-0.3,0.2-0.8,0.2-1.1c0-1.1-0.9-2.1-2-2.1
	c-1.3,0-2,1.1-2,2.3c0,1.4,1.1,2.6,3.1,2.6c2.1,0,4.1-1.3,6-5.9l6.3-15c0.8-1.9,1.9-2.7,3-2.8v-1.1h-6.9v1.1
	c2.6,0.4,2.8,1.3,1.8,3.5l-3.6,8.7l-4.3-10.3c-0.5-1.1,0.1-1.8,2.4-1.9v-1.1h-8.5v1.1c1.6,0.2,2,0.7,2.8,2.4L193.2,44.8z
	 M178.7,45.2c2.4,0,3.7-1,5.1-3.5l-0.9-0.6c-0.9,1.2-1.7,2-2.7,2c-1.6,0-2.3-1-2.3-3.1V29.3h5.5v-1.6h-5.5v-6.2l-3.1,1.4v4.8
	l-3.3,0.7v1.1h3.2v11.1C174.6,43.7,176.1,45.2,178.7,45.2 M161.1,44.9h8.7v-1.2c-2.2,0-2.7-0.4-2.7-1.3V27.6l-5.9,0.2v1.2
	c2.2,0,2.7,0.7,2.7,1.8v11.7c0,0.9-0.6,1.3-2.7,1.3V44.9z M165.4,23.3c1.3,0,2.1-0.9,2.1-2.3s-0.9-2.2-2.1-2.2s-2.1,1-2.1,2.3
	S164.1,23.3,165.4,23.3 M148.1,45.5c5.5,0,8.7-3.6,10.3-7.1l-1.2-0.6c-1.5,3.2-3.8,5.8-8.1,5.8c-4.2,0-8.9-3.6-8.9-10.9
	c0-7.7,3.9-11.8,8.2-11.8c3.7,0,6,2.6,7.6,6.9h1.1v-8.1H156l-1.1,1.6c-1.4-0.8-3.5-1.7-6.1-1.7c-7.1,0-12.7,5.7-12.7,13.3
	C136.1,40.5,141.1,45.5,148.1,45.5 M117.3,32.2l-3.6,8.7h-0.2l-3.8-10.2c-0.1-0.2-0.2-0.5-0.2-0.7c0-0.7,0.6-1.1,2.3-1.2v-1.1h-8.1
	v1.1c1.7,0.3,2.1,0.6,2.8,2.4l5.3,14h1.7l4.4-10.9l4,10.9h1.6l5-13.6c0.6-1.8,1.3-2.6,3.2-2.8v-1.1h-6.9v1.1
	c1.6,0.3,2.2,0.8,2.2,1.6c0,0.5-0.2,1.1-0.5,1.9l-2.9,8.6h-0.1l-3.7-10.2c-0.1-0.2-0.2-0.4-0.2-0.7c0-0.7,0.8-1.1,2.4-1.2v-1.1h-7.8
	v1.1c1.5,0.2,2,0.8,2.6,2.4L117.3,32.2z M95,28.5c2.7,0,4.1,2.7,3.7,5.9l-8.1,0.2C91,30.3,92.8,28.5,95,28.5 M95.3,45.2
	c3.8,0,5.8-2.1,7.2-4.5l-0.8-0.7c-1.5,1.8-3.2,3.2-5.3,3.2c-3.7,0-5.8-3-5.8-7.2V36v-0.2h11.6c0.3-4.1-2-8.4-6.9-8.4
	c-4.9,0-8.1,4-8.1,9.1C87.3,41.4,90,45.2,95.3,45.2 M80.1,45.5h1.5V26c0-3.4,0.3-4.2,3.7-4.8v-1.1h-9.6v1.1c3.6,0.5,4.4,1.4,4.4,4.8
	v13.3h0L66,20.1h-7v1.2c3,0.1,4,1.2,4,2.6V39c0,3.5-0.6,4.3-4,4.9v1.1h9.5v-1.1c-3.6-0.5-4.1-1.4-4.1-4.9V24.1h0L80.1,45.5z"/>
</svg>
